<?xml version="1.0" encoding="utf-8" standalone="no"?>
<!DOCTYPE svg PUBLIC "-//W3C//DTD SVG 1.1//EN"
  "http://www.w3.org/Graphics/SVG/1.1/DTD/svg11.dtd">
<svg xmlns:xlink="http://www.w3.org/1999/xlink" width="853.344pt" height="424.8pt" viewBox="0 0 853.344 424.8" xmlns="http://www.w3.org/2000/svg" version="1.1">
 <metadata>
  <rdf:RDF xmlns:dc="http://purl.org/dc/elements/1.1/" xmlns:cc="http://creativecommons.org/ns#" xmlns:rdf="http://www.w3.org/1999/02/22-rdf-syntax-ns#">
   <cc:Work>
    <dc:type rdf:resource="http://purl.org/dc/dcmitype/StillImage"/>
    <dc:format>image/svg+xml</dc:format>
    <dc:creator>
     <cc:Agent>
      <dc:title>HarnessForge figure generator</dc:title>
     </cc:Agent>
    </dc:creator>
   </cc:Work>
  </rdf:RDF>
 </metadata>
 <defs>
  <style type="text/css">*{stroke-linejoin: round; stroke-linecap: butt}</style>
 </defs>
 <g id="figure_1">
  <g id="patch_1">
   <path d="M 0 424.8 
L 853.344 424.8 
L 853.344 0 
L 0 0 
z
" style="fill: #f7f8fa"/>
  </g>
  <g id="axes_1">
   <g id="line2d_1">
    <path d="M 150.180768 109.26 
L 703.163232 109.26 
" clip-path="url(#p5b6e3593ad)" style="fill: none; stroke: #d9dee8; stroke-width: 1.2; stroke-linecap: round"/>
   </g>
   <g id="patch_2">
    <path d="M 27.295776 369.108 
L 273.06576 369.108 
Q 286.350624 369.108 286.350624 363.924 
L 286.350624 146.196 
Q 286.350624 141.012 273.06576 141.012 
L 27.295776 141.012 
Q 14.010912 141.012 14.010912 146.196 
L 14.010912 363.924 
Q 14.010912 369.108 27.295776 369.108 
z
" clip-path="url(#p5b6e3593ad)" style="fill: #ffffff; stroke: #d9dee8; stroke-width: 0.9; stroke-linejoin: miter"/>
   </g>
   <g id="patch_3">
    <path d="M 23.97456 148.788 
L 276.386976 148.788 
L 276.386976 144.9 
L 23.97456 144.9 
z
" clip-path="url(#p5b6e3593ad)" style="fill: #e94560"/>
   </g>
   <g id="patch_4">
    <path d="M 303.787008 369.108 
L 549.556992 369.108 
Q 562.841856 369.108 562.841856 363.924 
L 562.841856 146.196 
Q 562.841856 141.012 549.556992 141.012 
L 303.787008 141.012 
Q 290.502144 141.012 290.502144 146.196 
L 290.502144 363.924 
Q 290.502144 369.108 303.787008 369.108 
z
" clip-path="url(#p5b6e3593ad)" style="fill: #ffffff; stroke: #d9dee8; stroke-width: 0.9; stroke-linejoin: miter"/>
   </g>
   <g id="patch_5">
    <path d="M 300.465792 148.788 
L 552.878208 148.788 
L 552.878208 144.9 
L 300.465792 144.9 
z
" clip-path="url(#p5b6e3593ad)" style="fill: #e94560"/>
   </g>
   <g id="patch_6">
    <path d="M 580.27824 369.108 
L 826.048224 369.108 
Q 839.333088 369.108 839.333088 363.924 
L 839.333088 146.196 
Q 839.333088 141.012 826.048224 141.012 
L 580.27824 141.012 
Q 566.993376 141.012 566.993376 146.196 
L 566.993376 363.924 
Q 566.993376 369.108 580.27824 369.108 
z
" clip-path="url(#p5b6e3593ad)" style="fill: #ffffff; stroke: #d9dee8; stroke-width: 0.9; stroke-linejoin: miter"/>
   </g>
   <g id="patch_7">
    <path d="M 576.957024 148.788 
L 829.36944 148.788 
L 829.36944 144.9 
L 576.957024 144.9 
z
" clip-path="url(#p5b6e3593ad)" style="fill: #e9c46a"/>
   </g>
   <g id="PathCollection_1">
    <defs>
     <path id="m333a1c4f30" d="M 0 8.062258 
C 2.138136 8.062258 4.188987 7.212767 5.700877 5.700877 
C 7.212767 4.188987 8.062258 2.138136 8.062258 0 
C 8.062258 -2.138136 7.212767 -4.188987 5.700877 -5.700877 
C 4.188987 -7.212767 2.138136 -8.062258 0 -8.062258 
C -2.138136 -8.062258 -4.188987 -7.212767 -5.700877 -5.700877 
C -7.212767 -4.188987 -8.062258 -2.138136 -8.062258 0 
C -8.062258 2.138136 -7.212767 4.188987 -5.700877 5.700877 
C -4.188987 7.212767 -2.138136 8.062258 0 8.062258 
z
" style="stroke: #1a1a2e"/>
    </defs>
    <g clip-path="url(#p5b6e3593ad)">
     <use xlink:href="#m333a1c4f30" x="150.180768" y="109.26" style="fill: #f7f8fa; stroke: #1a1a2e"/>
    </g>
   </g>
   <g id="PathCollection_2">
    <g clip-path="url(#p5b6e3593ad)">
     <use xlink:href="#m333a1c4f30" x="426.672" y="109.26" style="fill: #f7f8fa; stroke: #1a1a2e"/>
    </g>
   </g>
   <g id="PathCollection_3">
    <g clip-path="url(#p5b6e3593ad)">
     <use xlink:href="#m333a1c4f30" x="703.163232" y="109.26" style="fill: #f7f8fa; stroke: #1a1a2e"/>
    </g>
   </g>
   <g id="text_1">
    <text style="font-size: 11.2px; font-family: 'DejaVu Sans'; text-anchor: start; fill: #1a1a2e" x="44.73216" y="171.23025" transform="rotate(-0 44.73216 171.23025)">Native round 1</text>
   </g>
   <g id="text_2">
    <text style="font-size: 8.5px; font-family: 'DejaVu Sans'; text-anchor: start; fill: #8d99ae" x="44.73216" y="185.378672" transform="rotate(-0 44.73216 185.378672)">reverify after patch</text>
   </g>
   <g id="text_3">
    <text style="font-size: 7.5px; font-family: 'DejaVu Sans'; text-anchor: start; fill: #8d99ae" x="44.73216" y="207.298242" transform="rotate(-0 44.73216 207.298242)">PREDICTED</text>
   </g>
   <g id="text_4">
    <text style="font-size: 9.2px; font-family: 'DejaVu Sans'; text-anchor: start; fill: #1a1a2e" x="44.73216" y="221.225844" transform="rotate(-0 44.73216 221.225844)">Pass-rate Δ +0.08</text>
   </g>
   <g id="text_5">
    <text style="font-size: 7.5px; font-family: 'DejaVu Sans'; text-anchor: start; fill: #8d99ae" x="44.73216" y="241.318242" transform="rotate(-0 44.73216 241.318242)">OBSERVED</text>
   </g>
   <g id="text_6">
    <text style="font-size: 8.35px; font-family: 'DejaVu Sans'; text-anchor: start; fill: #1a1a2e" x="61.33824" y="254.924695" transform="rotate(-0 61.33824 254.924695)">Small-sample Δ +1.00</text>
   </g>
   <g id="text_7">
    <text style="font-size: 8.35px; font-family: 'DejaVu Sans'; text-anchor: start; fill: #1a1a2e" x="61.33824" y="271.772695" transform="rotate(-0 61.33824 271.772695)">Controlled A/B ≈ 0.00</text>
   </g>
   <g id="text_8">
    <text style="font-size: 7.5px; font-family: 'DejaVu Sans'; text-anchor: start; fill: #8d99ae" x="44.73216" y="324.910242" transform="rotate(-0 44.73216 324.910242)">DECISION</text>
   </g>
   <g id="text_9">
    <g id="patch_8">
     <path d="M 44.73216 344.024 
L 86.930676 344.024 
Q 89.310676 344.024 89.310676 341.644 
L 89.310676 333.144 
Q 89.310676 330.764 86.930676 330.764 
L 44.73216 330.764 
Q 42.35216 330.764 42.35216 333.144 
L 42.35216 341.644 
Q 42.35216 344.024 44.73216 344.024 
z
" style="fill: #e94560; opacity: 0.16; stroke: #e94560; stroke-width: 0.8; stroke-linejoin: miter"/>
    </g>
    <text style="font-size: 8.5px; font-family: 'DejaVu Sans'; text-anchor: start; fill: #1a1a2e" x="44.73216" y="339.602008" transform="rotate(-0 44.73216 339.602008)">REJECTED</text>
   </g>
   <g id="text_10">
    <text style="font-size: 7.9px; font-family: 'DejaVu Sans'; text-anchor: start; fill: #1a1a2e" x="44.73216" y="351.982148" transform="rotate(-0 44.73216 351.982148)">Validation signal did not reproduce.</text>
   </g>
   <g id="text_11">
    <text style="font-size: 11.2px; font-family: 'DejaVu Sans'; text-anchor: start; fill: #1a1a2e" x="321.223392" y="171.23025" transform="rotate(-0 321.223392 171.23025)">TB finish-fix</text>
   </g>
   <g id="text_12">
    <text style="font-size: 8.5px; font-family: 'DejaVu Sans'; text-anchor: start; fill: #8d99ae" x="321.223392" y="185.378672" transform="rotate(-0 321.223392 185.378672)">finish when done</text>
   </g>
   <g id="text_13">
    <text style="font-size: 7.5px; font-family: 'DejaVu Sans'; text-anchor: start; fill: #8d99ae" x="321.223392" y="207.298242" transform="rotate(-0 321.223392 207.298242)">PREDICTED</text>
   </g>
   <g id="text_14">
    <text style="font-size: 9.2px; font-family: 'DejaVu Sans'; text-anchor: start; fill: #1a1a2e" x="321.223392" y="221.225844" transform="rotate(-0 321.223392 221.225844)">Pass-rate Δ +0.08</text>
   </g>
   <g id="text_15">
    <text style="font-size: 7.5px; font-family: 'DejaVu Sans'; text-anchor: start; fill: #8d99ae" x="321.223392" y="241.318242" transform="rotate(-0 321.223392 241.318242)">OBSERVED</text>
   </g>
   <g id="text_16">
    <text style="font-size: 8.35px; font-family: 'DejaVu Sans'; text-anchor: start; fill: #1a1a2e" x="337.829472" y="254.924043" transform="rotate(-0 337.829472 254.924043)">Pass-rate Δ -0.10</text>
   </g>
   <g id="text_17">
    <text style="font-size: 8.35px; font-family: 'DejaVu Sans'; text-anchor: start; fill: #1a1a2e" x="337.829472" y="271.772043" transform="rotate(-0 337.829472 271.772043)">Cost/run −19%</text>
   </g>
   <g id="text_18">
    <text style="font-size: 7.5px; font-family: 'DejaVu Sans'; text-anchor: start; fill: #8d99ae" x="321.223392" y="324.910242" transform="rotate(-0 321.223392 324.910242)">DECISION</text>
   </g>
   <g id="text_19">
    <g id="patch_9">
     <path d="M 321.223392 344.024 
L 363.421908 344.024 
Q 365.801908 344.024 365.801908 341.644 
L 365.801908 333.144 
Q 365.801908 330.764 363.421908 330.764 
L 321.223392 330.764 
Q 318.843392 330.764 318.843392 333.144 
L 318.843392 341.644 
Q 318.843392 344.024 321.223392 344.024 
z
" style="fill: #e94560; opacity: 0.16; stroke: #e94560; stroke-width: 0.8; stroke-linejoin: miter"/>
    </g>
    <text style="font-size: 8.5px; font-family: 'DejaVu Sans'; text-anchor: start; fill: #1a1a2e" x="321.223392" y="339.602008" transform="rotate(-0 321.223392 339.602008)">REJECTED</text>
   </g>
   <g id="text_20">
    <text style="font-size: 7.9px; font-family: 'DejaVu Sans'; text-anchor: start; fill: #1a1a2e" x="321.223392" y="351.982148" transform="rotate(-0 321.223392 351.982148)">Cheaper, but completion was premature.</text>
   </g>
   <g id="text_21">
    <text style="font-size: 11.2px; font-family: 'DejaVu Sans'; text-anchor: start; fill: #1a1a2e" x="597.714624" y="171.23025" transform="rotate(-0 597.714624 171.23025)">TB selfverify</text>
   </g>
   <g id="text_22">
    <text style="font-size: 8.5px; font-family: 'DejaVu Sans'; text-anchor: start; fill: #8d99ae" x="597.714624" y="185.378672" transform="rotate(-0 597.714624 185.378672)">verify deliverables</text>
   </g>
   <g id="text_23">
    <text style="font-size: 7.5px; font-family: 'DejaVu Sans'; text-anchor: start; fill: #8d99ae" x="597.714624" y="207.298242" transform="rotate(-0 597.714624 207.298242)">PREDICTED</text>
   </g>
   <g id="text_24">
    <text style="font-size: 9.2px; font-family: 'DejaVu Sans'; text-anchor: start; fill: #1a1a2e" x="597.714624" y="221.225844" transform="rotate(-0 597.714624 221.225844)">Pass-rate Δ +0.10</text>
   </g>
   <g id="text_25">
    <text style="font-size: 7.5px; font-family: 'DejaVu Sans'; text-anchor: start; fill: #8d99ae" x="597.714624" y="241.318242" transform="rotate(-0 597.714624 241.318242)">OBSERVED</text>
   </g>
   <g id="text_26">
    <text style="font-size: 8.35px; font-family: 'DejaVu Sans'; text-anchor: start; fill: #1a1a2e" x="614.320704" y="254.924043" transform="rotate(-0 614.320704 254.924043)">Targets Δ +0.095</text>
   </g>
   <g id="text_27">
    <text style="font-size: 8.35px; font-family: 'DejaVu Sans'; text-anchor: start; fill: #1a1a2e" x="614.320704" y="271.772695" transform="rotate(-0 614.320704 271.772695)">All tasks Δ +0.067</text>
   </g>
   <g id="text_28">
    <text style="font-size: 8.35px; font-family: 'DejaVu Sans'; text-anchor: start; fill: #1a1a2e" x="614.320704" y="288.620043" transform="rotate(-0 614.320704 288.620043)">Steps/run −6.9%</text>
   </g>
   <g id="text_29">
    <text style="font-size: 8.35px; font-family: 'DejaVu Sans'; text-anchor: start; fill: #1a1a2e" x="614.320704" y="305.468695" transform="rotate(-0 614.320704 305.468695)">95% CI [-13.3%, -1.6%]</text>
   </g>
   <g id="text_30">
    <text style="font-size: 7.5px; font-family: 'DejaVu Sans'; text-anchor: start; fill: #8d99ae" x="597.714624" y="324.910242" transform="rotate(-0 597.714624 324.910242)">DECISION</text>
   </g>
   <g id="text_31">
    <g id="patch_10">
     <path d="M 597.714624 344.024 
L 731.641421 344.024 
Q 734.021421 344.024 734.021421 341.644 
L 734.021421 333.144 
Q 734.021421 330.764 731.641421 330.764 
L 597.714624 330.764 
Q 595.334624 330.764 595.334624 333.144 
L 595.334624 341.644 
Q 595.334624 344.024 597.714624 344.024 
z
" style="fill: #e9c46a; opacity: 0.16; stroke: #e9c46a; stroke-width: 0.8; stroke-linejoin: miter"/>
    </g>
    <text style="font-size: 8.5px; font-family: 'DejaVu Sans'; text-anchor: start; fill: #1a1a2e" x="597.714624" y="339.602008" transform="rotate(-0 597.714624 339.602008)">BEST EVIDENCE · NOT MERGED</text>
   </g>
   <g id="text_32">
    <text style="font-size: 7.9px; font-family: 'DejaVu Sans'; text-anchor: start; fill: #1a1a2e" x="597.714624" y="351.982148" transform="rotate(-0 597.714624 351.982148)">Efficiency CI excludes zero; pass rate is underpowered.</text>
   </g>
   <g id="text_33">
    <text style="font-size: 9px; font-family: 'DejaVu Sans'; text-anchor: middle; fill: #1a1a2e" x="150.180768" y="111.597891" transform="rotate(-0 150.180768 111.597891)">1</text>
   </g>
   <g id="text_34">
    <text style="font-size: 9px; font-family: 'DejaVu Sans'; text-anchor: middle; fill: #1a1a2e" x="426.672" y="111.597891" transform="rotate(-0 426.672 111.597891)">2</text>
   </g>
   <g id="text_35">
    <text style="font-size: 9px; font-family: 'DejaVu Sans'; text-anchor: middle; fill: #1a1a2e" x="703.163232" y="111.597891" transform="rotate(-0 703.163232 111.597891)">3</text>
   </g>
   <g id="PathCollection_4">
    <defs>
     <path id="m52387a65da" d="M 0 2.12132 
C 0.562581 2.12132 1.102195 1.897805 1.5 1.5 
C 1.897805 1.102195 2.12132 0.562581 2.12132 0 
C 2.12132 -0.562581 1.897805 -1.102195 1.5 -1.5 
C 1.102195 -1.897805 0.562581 -2.12132 0 -2.12132 
C -0.562581 -2.12132 -1.102195 -1.897805 -1.5 -1.5 
C -1.897805 -1.102195 -2.12132 -0.562581 -2.12132 0 
C -2.12132 0.562581 -1.897805 1.102195 -1.5 1.5 
C -1.102195 1.897805 -0.562581 2.12132 0 2.12132 
z
" style="stroke: #e9c46a"/>
    </defs>
    <g clip-path="url(#p5b6e3593ad)">
     <use xlink:href="#m52387a65da" x="49.713984" y="251.82" style="fill: #e9c46a; stroke: #e9c46a"/>
    </g>
   </g>
   <g id="PathCollection_5">
    <defs>
     <path id="m56cb25697e" d="M 0 2.12132 
C 0.562581 2.12132 1.102195 1.897805 1.5 1.5 
C 1.897805 1.102195 2.12132 0.562581 2.12132 0 
C 2.12132 -0.562581 1.897805 -1.102195 1.5 -1.5 
C 1.102195 -1.897805 0.562581 -2.12132 0 -2.12132 
C -0.562581 -2.12132 -1.102195 -1.897805 -1.5 -1.5 
C -1.897805 -1.102195 -2.12132 -0.562581 -2.12132 0 
C -2.12132 0.562581 -1.897805 1.102195 -1.5 1.5 
C -1.102195 1.897805 -0.562581 2.12132 0 2.12132 
z
" style="stroke: #e94560"/>
    </defs>
    <g clip-path="url(#p5b6e3593ad)">
     <use xlink:href="#m56cb25697e" x="49.713984" y="268.668" style="fill: #e94560; stroke: #e94560"/>
    </g>
   </g>
   <g id="PathCollection_6">
    <g clip-path="url(#p5b6e3593ad)">
     <use xlink:href="#m56cb25697e" x="326.205216" y="251.82" style="fill: #e94560; stroke: #e94560"/>
    </g>
   </g>
   <g id="PathCollection_7">
    <defs>
     <path id="m2379f18bf7" d="M 0 2.12132 
C 0.562581 2.12132 1.102195 1.897805 1.5 1.5 
C 1.897805 1.102195 2.12132 0.562581 2.12132 0 
C 2.12132 -0.562581 1.897805 -1.102195 1.5 -1.5 
C 1.102195 -1.897805 0.562581 -2.12132 0 -2.12132 
C -0.562581 -2.12132 -1.102195 -1.897805 -1.5 -1.5 
C -1.897805 -1.102195 -2.12132 -0.562581 -2.12132 0 
C -2.12132 0.562581 -1.897805 1.102195 -1.5 1.5 
C -1.102195 1.897805 -0.562581 2.12132 0 2.12132 
z
" style="stroke: #2a9d8f"/>
    </defs>
    <g clip-path="url(#p5b6e3593ad)">
     <use xlink:href="#m2379f18bf7" x="326.205216" y="268.668" style="fill: #2a9d8f; stroke: #2a9d8f"/>
    </g>
   </g>
   <g id="PathCollection_8">
    <g clip-path="url(#p5b6e3593ad)">
     <use xlink:href="#m52387a65da" x="602.696448" y="251.82" style="fill: #e9c46a; stroke: #e9c46a"/>
    </g>
   </g>
   <g id="PathCollection_9">
    <g clip-path="url(#p5b6e3593ad)">
     <use xlink:href="#m52387a65da" x="602.696448" y="268.668" style="fill: #e9c46a; stroke: #e9c46a"/>
    </g>
   </g>
   <g id="PathCollection_10">
    <g clip-path="url(#p5b6e3593ad)">
     <use xlink:href="#m2379f18bf7" x="602.696448" y="285.516" style="fill: #2a9d8f; stroke: #2a9d8f"/>
    </g>
   </g>
   <g id="PathCollection_11">
    <g clip-path="url(#p5b6e3593ad)">
     <use xlink:href="#m2379f18bf7" x="602.696448" y="302.364" style="fill: #2a9d8f; stroke: #2a9d8f"/>
    </g>
   </g>
  </g>
  <g id="text_36">
   <text style="font-size: 18px; font-family: 'DejaVu Sans'; text-anchor: start; fill: #1a1a2e" x="11.52" y="25.197187" transform="rotate(-0 11.52 25.197187)">Harness Intervention Arc</text>
  </g>
  <g id="text_37">
   <text style="font-size: 9.5px; font-family: 'DejaVu Sans'; text-anchor: start; fill: #8d99ae" x="11.52" y="39.042516" transform="rotate(-0 11.52 39.042516)">Prediction → controlled evidence → decision · the confirmed win moved to efficiency</text>
  </g>
  <g id="text_38">
   <text style="font-size: 7.5px; font-family: 'DejaVu Sans'; text-anchor: start; fill: #8d99ae" x="11.52" y="411.478242" transform="rotate(-0 11.52 411.478242)">Source: docs/data/calibration.json · EXPERIMENTS.md</text>
  </g>
 </g>
 <defs>
  <clipPath id="p5b6e3593ad">
   <rect x="11.52" y="65.52" width="830.304" height="324"/>
  </clipPath>
 </defs>
</svg>
