<?xml version="1.0" encoding="utf-8" standalone="no"?>
<!DOCTYPE svg PUBLIC "-//W3C//DTD SVG 1.1//EN"
  "http://www.w3.org/Graphics/SVG/1.1/DTD/svg11.dtd">
<svg xmlns:xlink="http://www.w3.org/1999/xlink" width="850.81125pt" height="411.408pt" viewBox="0 0 850.81125 411.408" xmlns="http://www.w3.org/2000/svg" version="1.1">
 <metadata>
  <rdf:RDF xmlns:dc="http://purl.org/dc/elements/1.1/" xmlns:cc="http://creativecommons.org/ns#" xmlns:rdf="http://www.w3.org/1999/02/22-rdf-syntax-ns#">
   <cc:Work>
    <dc:type rdf:resource="http://purl.org/dc/dcmitype/StillImage"/>
    <dc:format>image/svg+xml</dc:format>
    <dc:creator>
     <cc:Agent>
      <dc:title>HarnessForge figure generator</dc:title>
     </cc:Agent>
    </dc:creator>
   </cc:Work>
  </rdf:RDF>
 </metadata>
 <defs>
  <style type="text/css">*{stroke-linejoin: round; stroke-linecap: butt}</style>
 </defs>
 <g id="figure_1">
  <g id="patch_1">
   <path d="M 0 411.408 
L 850.81125 411.408 
L 850.81125 0 
L 0 0 
z
" style="fill: #f7f8fa"/>
  </g>
  <g id="axes_1">
   <g id="patch_2">
    <path d="M 92.65125 343.512 
L 508.220823 343.512 
L 508.220823 92.952 
L 92.65125 92.952 
z
" style="fill: #f7f8fa"/>
   </g>
   <g id="matplotlib.axis_1">
    <g id="xtick_1">
     <g id="line2d_1">
      <path d="M 152.018332 343.512 
L 152.018332 92.952 
" clip-path="url(#p8ad3d25d50)" style="fill: none; stroke: #e4e7ed; stroke-opacity: 0.8; stroke-width: 0.8; stroke-linecap: round"/>
     </g>
     <g id="line2d_2"/>
     <g id="text_1">
      <text style="font-size: 10px; font-family: 'DejaVu Sans'; text-anchor: middle; fill: #1a1a2e" x="152.018332" y="358.109656" transform="rotate(-0 152.018332 358.109656)">-10</text>
     </g>
    </g>
    <g id="xtick_2">
     <g id="line2d_3">
      <path d="M 226.227184 343.512 
L 226.227184 92.952 
" clip-path="url(#p8ad3d25d50)" style="fill: none; stroke: #e4e7ed; stroke-opacity: 0.8; stroke-width: 0.8; stroke-linecap: round"/>
     </g>
     <g id="line2d_4"/>
     <g id="text_2">
      <text style="font-size: 10px; font-family: 'DejaVu Sans'; text-anchor: middle; fill: #1a1a2e" x="226.227184" y="358.109656" transform="rotate(-0 226.227184 358.109656)">-5</text>
     </g>
    </g>
    <g id="xtick_3">
     <g id="line2d_5">
      <path d="M 300.436037 343.512 
L 300.436037 92.952 
" clip-path="url(#p8ad3d25d50)" style="fill: none; stroke: #e4e7ed; stroke-opacity: 0.8; stroke-width: 0.8; stroke-linecap: round"/>
     </g>
     <g id="line2d_6"/>
     <g id="text_3">
      <text style="font-size: 10px; font-family: 'DejaVu Sans'; text-anchor: middle; fill: #1a1a2e" x="300.436037" y="358.109656" transform="rotate(-0 300.436037 358.109656)">+0</text>
     </g>
    </g>
    <g id="xtick_4">
     <g id="line2d_7">
      <path d="M 374.644889 343.512 
L 374.644889 92.952 
" clip-path="url(#p8ad3d25d50)" style="fill: none; stroke: #e4e7ed; stroke-opacity: 0.8; stroke-width: 0.8; stroke-linecap: round"/>
     </g>
     <g id="line2d_8"/>
     <g id="text_4">
      <text style="font-size: 10px; font-family: 'DejaVu Sans'; text-anchor: middle; fill: #1a1a2e" x="374.644889" y="358.109656" transform="rotate(-0 374.644889 358.109656)">+5</text>
     </g>
    </g>
    <g id="xtick_5">
     <g id="line2d_9">
      <path d="M 448.853741 343.512 
L 448.853741 92.952 
" clip-path="url(#p8ad3d25d50)" style="fill: none; stroke: #e4e7ed; stroke-opacity: 0.8; stroke-width: 0.8; stroke-linecap: round"/>
     </g>
     <g id="line2d_10"/>
     <g id="text_5">
      <text style="font-size: 10px; font-family: 'DejaVu Sans'; text-anchor: middle; fill: #1a1a2e" x="448.853741" y="358.109656" transform="rotate(-0 448.853741 358.109656)">+10</text>
     </g>
    </g>
    <g id="text_6">
     <text style="font-size: 10px; font-family: 'DejaVu Sans'; text-anchor: middle; fill: #1a1a2e" x="300.436037" y="372.110437" transform="rotate(-0 300.436037 372.110437)">Predicted / controlled pass-rate effect (percentage points)</text>
    </g>
   </g>
   <g id="matplotlib.axis_2">
    <g id="ytick_1">
     <g id="line2d_11"/>
     <g id="text_7">
      <text style="font-size: 10px; font-family: 'DejaVu Sans'; text-anchor: end; fill: #1a1a2e" x="85.65125" y="141.205412" transform="rotate(-0 85.65125 141.205412)">Native round 1</text>
     </g>
    </g>
    <g id="ytick_2">
     <g id="line2d_12"/>
     <g id="text_8">
      <text style="font-size: 10px; font-family: 'DejaVu Sans'; text-anchor: end; fill: #1a1a2e" x="85.65125" y="222.031219" transform="rotate(-0 85.65125 222.031219)">TB finish-fix</text>
     </g>
    </g>
    <g id="ytick_3">
     <g id="line2d_13"/>
     <g id="text_9">
      <text style="font-size: 10px; font-family: 'DejaVu Sans'; text-anchor: end; fill: #1a1a2e" x="85.65125" y="302.857025" transform="rotate(-0 85.65125 302.857025)">TB selfverify</text>
     </g>
    </g>
   </g>
   <g id="line2d_14">
    <path d="M 300.436037 343.512 
L 300.436037 92.952 
" clip-path="url(#p8ad3d25d50)" style="fill: none; stroke: #1a1a2e; stroke-linecap: round"/>
   </g>
   <g id="line2d_15">
    <path d="M 300.436037 137.406194 
L 419.1702 137.406194 
" clip-path="url(#p8ad3d25d50)" style="fill: none; stroke: #d9dee8; stroke-width: 5; stroke-linecap: round"/>
   </g>
   <g id="line2d_16">
    <path d="M 152.018332 218.232 
L 419.1702 218.232 
" clip-path="url(#p8ad3d25d50)" style="fill: none; stroke: #d9dee8; stroke-width: 5; stroke-linecap: round"/>
   </g>
   <g id="line2d_17">
    <path d="M 441.432856 299.057806 
L 448.853741 299.057806 
" clip-path="url(#p8ad3d25d50)" style="fill: none; stroke: #d9dee8; stroke-width: 5; stroke-linecap: round"/>
   </g>
   <g id="patch_3">
    <path d="M 92.65125 343.512 
L 508.220823 343.512 
" style="fill: none; stroke: #d9dee8; stroke-width: 0.8; stroke-linejoin: miter; stroke-linecap: square"/>
   </g>
   <g id="text_10">
    <text style="font-size: 8px; font-family: 'DejaVu Sans'; text-anchor: middle; fill: #1a1a2e" x="419.1702" y="121.241032" transform="rotate(-0 419.1702 121.241032)">pred +8</text>
   </g>
   <g id="text_11">
    <text style="font-size: 8px; font-family: 'DejaVu Sans'; text-anchor: middle; fill: #8d99ae" x="300.436037" y="155.187871" transform="rotate(-0 300.436037 155.187871)">observed ≈0</text>
   </g>
   <g id="text_12">
    <text style="font-size: 8px; font-family: 'DejaVu Sans'; text-anchor: middle; fill: #1a1a2e" x="419.1702" y="202.066839" transform="rotate(-0 419.1702 202.066839)">pred +8</text>
   </g>
   <g id="text_13">
    <text style="font-size: 8px; font-family: 'DejaVu Sans'; text-anchor: middle; fill: #e94560" x="152.018332" y="236.013677" transform="rotate(-0 152.018332 236.013677)">observed -10.0</text>
   </g>
   <g id="text_14">
    <text style="font-size: 8px; font-family: 'DejaVu Sans'; text-anchor: middle; fill: #1a1a2e" x="448.853741" y="282.892645" transform="rotate(-0 448.853741 282.892645)">pred +10</text>
   </g>
   <g id="text_15">
    <text style="font-size: 8px; font-family: 'DejaVu Sans'; text-anchor: middle; fill: #e9c46a" x="441.432856" y="316.839484" transform="rotate(-0 441.432856 316.839484)">observed +9.5 targets</text>
   </g>
   <g id="text_16">
    <text style="font-size: 8.2px; font-family: 'DejaVu Sans'; fill: #e9c46a" transform="translate(96.806946 117.54272)">Native small-sample gate: +100 pp</text>
    <text style="font-size: 8.2px; font-family: 'DejaVu Sans'; fill: #e9c46a" transform="translate(96.806946 127.384962)">(off-scale; did not hold up)</text>
   </g>
   <g id="text_17">
    <text style="font-size: 12px; font-family: 'DejaVu Sans'; text-anchor: start; fill: #1a1a2e" x="92.65125" y="80.952" transform="rotate(-0 92.65125 80.952)">Calibration dumbbell</text>
   </g>
   <g id="PathCollection_1">
    <defs>
     <path id="m666296b666" d="M -0 6.324555 
L 6.324555 0 
L 0 -6.324555 
L -6.324555 -0 
z
" style="stroke: #1a1a2e; stroke-width: 1.5"/>
    </defs>
    <g clip-path="url(#p8ad3d25d50)">
     <use xlink:href="#m666296b666" x="419.1702" y="137.406194" style="fill: #f7f8fa; stroke: #1a1a2e; stroke-width: 1.5"/>
    </g>
   </g>
   <g id="PathCollection_2">
    <g clip-path="url(#p8ad3d25d50)">
     <use xlink:href="#m666296b666" x="419.1702" y="218.232" style="fill: #f7f8fa; stroke: #1a1a2e; stroke-width: 1.5"/>
    </g>
   </g>
   <g id="PathCollection_3">
    <g clip-path="url(#p8ad3d25d50)">
     <use xlink:href="#m666296b666" x="448.853741" y="299.057806" style="fill: #f7f8fa; stroke: #1a1a2e; stroke-width: 1.5"/>
    </g>
   </g>
   <g id="PathCollection_4">
    <defs>
     <path id="mad9ce917d9" d="M 0 4.690416 
C 1.243913 4.690416 2.437046 4.196204 3.316625 3.316625 
C 4.196204 2.437046 4.690416 1.243913 4.690416 0 
C 4.690416 -1.243913 4.196204 -2.437046 3.316625 -3.316625 
C 2.437046 -4.196204 1.243913 -4.690416 0 -4.690416 
C -1.243913 -4.690416 -2.437046 -4.196204 -3.316625 -3.316625 
C -4.196204 -2.437046 -4.690416 -1.243913 -4.690416 0 
C -4.690416 1.243913 -4.196204 2.437046 -3.316625 3.316625 
C -2.437046 4.196204 -1.243913 4.690416 0 4.690416 
z
" style="stroke: #f7f8fa; stroke-width: 1.2"/>
    </defs>
    <g clip-path="url(#p8ad3d25d50)">
     <use xlink:href="#mad9ce917d9" x="300.436037" y="137.406194" style="fill: #8d99ae; stroke: #f7f8fa; stroke-width: 1.2"/>
    </g>
   </g>
   <g id="PathCollection_5">
    <defs>
     <path id="mfdf4c0254e" d="M 0 4.690416 
C 1.243913 4.690416 2.437046 4.196204 3.316625 3.316625 
C 4.196204 2.437046 4.690416 1.243913 4.690416 0 
C 4.690416 -1.243913 4.196204 -2.437046 3.316625 -3.316625 
C 2.437046 -4.196204 1.243913 -4.690416 0 -4.690416 
C -1.243913 -4.690416 -2.437046 -4.196204 -3.316625 -3.316625 
C -4.196204 -2.437046 -4.690416 -1.243913 -4.690416 0 
C -4.690416 1.243913 -4.196204 2.437046 -3.316625 3.316625 
C -2.437046 4.196204 -1.243913 4.690416 0 4.690416 
z
" style="stroke: #f7f8fa; stroke-width: 1.2"/>
    </defs>
    <g clip-path="url(#p8ad3d25d50)">
     <use xlink:href="#mfdf4c0254e" x="152.018332" y="218.232" style="fill: #e94560; stroke: #f7f8fa; stroke-width: 1.2"/>
    </g>
   </g>
   <g id="PathCollection_6">
    <defs>
     <path id="m24f79219a0" d="M 0 4.690416 
C 1.243913 4.690416 2.437046 4.196204 3.316625 3.316625 
C 4.196204 2.437046 4.690416 1.243913 4.690416 0 
C 4.690416 -1.243913 4.196204 -2.437046 3.316625 -3.316625 
C 2.437046 -4.196204 1.243913 -4.690416 0 -4.690416 
C -1.243913 -4.690416 -2.437046 -4.196204 -3.316625 -3.316625 
C -4.196204 -2.437046 -4.690416 -1.243913 -4.690416 0 
C -4.690416 1.243913 -4.196204 2.437046 -3.316625 3.316625 
C -2.437046 4.196204 -1.243913 4.690416 0 4.690416 
z
" style="stroke: #f7f8fa; stroke-width: 1.2"/>
    </defs>
    <g clip-path="url(#p8ad3d25d50)">
     <use xlink:href="#m24f79219a0" x="441.432856" y="299.057806" style="fill: #e9c46a; stroke: #f7f8fa; stroke-width: 1.2"/>
    </g>
   </g>
   <g id="legend_1">
    <g id="line2d_18">
     <defs>
      <path id="mca15311084" d="M -0 4.242641 
L 4.242641 0 
L 0 -4.242641 
L -4.242641 -0 
z
" style="stroke: #1a1a2e; stroke-linejoin: miter"/>
     </defs>
     <g>
      <use xlink:href="#mca15311084" x="107.85125" y="331.590125" style="fill: #f7f8fa; stroke: #1a1a2e; stroke-linejoin: miter"/>
     </g>
    </g>
    <g id="text_18">
     <text style="font-size: 8px; font-family: 'DejaVu Sans'; text-anchor: start; fill: #1a1a2e" x="122.25125" y="334.390125" transform="rotate(-0 122.25125 334.390125)">Predicted</text>
    </g>
    <g id="line2d_19">
     <defs>
      <path id="m492f1e4b54" d="M 0 3 
C 0.795609 3 1.55874 2.683901 2.12132 2.12132 
C 2.683901 1.55874 3 0.795609 3 0 
C 3 -0.795609 2.683901 -1.55874 2.12132 -2.12132 
C 1.55874 -2.683901 0.795609 -3 0 -3 
C -0.795609 -3 -1.55874 -2.683901 -2.12132 -2.12132 
C -2.683901 -1.55874 -3 -0.795609 -3 0 
C -3 0.795609 -2.683901 1.55874 -2.12132 2.12132 
C -1.55874 2.683901 -0.795609 3 0 3 
z
" style="stroke: #8d99ae"/>
     </defs>
     <g>
      <use xlink:href="#m492f1e4b54" x="183.8075" y="331.590125" style="fill: #8d99ae; stroke: #8d99ae"/>
     </g>
    </g>
    <g id="text_19">
     <text style="font-size: 8px; font-family: 'DejaVu Sans'; text-anchor: start; fill: #1a1a2e" x="198.2075" y="334.390125" transform="rotate(-0 198.2075 334.390125)">Controlled observed</text>
    </g>
   </g>
  </g>
  <g id="axes_2">
   <g id="patch_4">
    <path d="M 608.419265 343.512 
L 839.29125 343.512 
L 839.29125 92.952 
L 608.419265 92.952 
z
" style="fill: #f7f8fa"/>
   </g>
   <g id="matplotlib.axis_3">
    <g id="xtick_6">
     <g id="line2d_20">
      <path d="M 608.419265 343.512 
L 608.419265 92.952 
" clip-path="url(#p8fe6659c76)" style="fill: none; stroke: #e4e7ed; stroke-opacity: 0.8; stroke-width: 0.8; stroke-linecap: round"/>
     </g>
     <g id="line2d_21"/>
     <g id="text_20">
      <text style="font-size: 10px; font-family: 'DejaVu Sans'; text-anchor: middle; fill: #1a1a2e" x="608.419265" y="358.109656" transform="rotate(-0 608.419265 358.109656)">-15%</text>
     </g>
    </g>
    <g id="xtick_7">
     <g id="line2d_22">
      <path d="M 669.17505 343.512 
L 669.17505 92.952 
" clip-path="url(#p8fe6659c76)" style="fill: none; stroke: #e4e7ed; stroke-opacity: 0.8; stroke-width: 0.8; stroke-linecap: round"/>
     </g>
     <g id="line2d_23"/>
     <g id="text_21">
      <text style="font-size: 10px; font-family: 'DejaVu Sans'; text-anchor: middle; fill: #1a1a2e" x="669.17505" y="358.109656" transform="rotate(-0 669.17505 358.109656)">-10%</text>
     </g>
    </g>
    <g id="xtick_8">
     <g id="line2d_24">
      <path d="M 729.930836 343.512 
L 729.930836 92.952 
" clip-path="url(#p8fe6659c76)" style="fill: none; stroke: #e4e7ed; stroke-opacity: 0.8; stroke-width: 0.8; stroke-linecap: round"/>
     </g>
     <g id="line2d_25"/>
     <g id="text_22">
      <text style="font-size: 10px; font-family: 'DejaVu Sans'; text-anchor: middle; fill: #1a1a2e" x="729.930836" y="358.109656" transform="rotate(-0 729.930836 358.109656)">-5%</text>
     </g>
    </g>
    <g id="xtick_9">
     <g id="line2d_26">
      <path d="M 790.686622 343.512 
L 790.686622 92.952 
" clip-path="url(#p8fe6659c76)" style="fill: none; stroke: #e4e7ed; stroke-opacity: 0.8; stroke-width: 0.8; stroke-linecap: round"/>
     </g>
     <g id="line2d_27"/>
     <g id="text_23">
      <text style="font-size: 10px; font-family: 'DejaVu Sans'; text-anchor: middle; fill: #1a1a2e" x="790.686622" y="358.109656" transform="rotate(-0 790.686622 358.109656)">+0%</text>
     </g>
    </g>
    <g id="text_24">
     <text style="font-size: 10px; font-family: 'DejaVu Sans'; text-anchor: middle; fill: #1a1a2e" x="723.855257" y="372.110437" transform="rotate(-0 723.855257 372.110437)">Relative steps/run change</text>
    </g>
   </g>
   <g id="matplotlib.axis_4">
    <g id="ytick_4">
     <g id="line2d_28"/>
     <g id="text_25">
      <text style="font-size: 10px; font-family: 'DejaVu Sans'; text-anchor: end; fill: #1a1a2e" x="601.419265" y="222.031219" transform="rotate(-0 601.419265 222.031219)">TB selfverify</text>
     </g>
    </g>
   </g>
   <g id="line2d_29">
    <path d="M 790.686622 343.512 
L 790.686622 92.952 
" clip-path="url(#p8fe6659c76)" style="fill: none; stroke: #1a1a2e; stroke-linecap: round"/>
   </g>
   <g id="line2d_30">
    <path d="M 629.076232 238.2768 
L 629.076232 198.1872 
" clip-path="url(#p8fe6659c76)" style="fill: none; stroke: #2a9d8f; stroke-width: 1.5; stroke-linecap: round"/>
   </g>
   <g id="line2d_31">
    <path d="M 771.24477 238.2768 
L 771.24477 198.1872 
" clip-path="url(#p8fe6659c76)" style="fill: none; stroke: #2a9d8f; stroke-width: 1.5; stroke-linecap: round"/>
   </g>
   <g id="patch_5">
    <path d="M 608.419265 343.512 
L 839.29125 343.512 
" style="fill: none; stroke: #d9dee8; stroke-width: 0.8; stroke-linejoin: miter; stroke-linecap: square"/>
   </g>
   <g id="line2d_32">
    <path d="M 629.076232 218.232 
L 771.24477 218.232 
" clip-path="url(#p8fe6659c76)" style="fill: none; stroke: #2a9d8f; stroke-width: 3.2; stroke-linecap: round"/>
   </g>
   <g id="text_26">
    <text style="font-size: 9px; font-family: 'DejaVu Sans'; fill: #2a9d8f" transform="translate(708.652289 144.212259)">−6.9%</text>
    <text style="font-size: 9px; font-family: 'DejaVu Sans'; fill: #2a9d8f" transform="translate(666.882445 155.912259)">95% CI [−13.3%, −1.6%]</text>
    <text style="font-size: 9px; font-family: 'DejaVu Sans'; fill: #2a9d8f" transform="translate(687.069164 168.591712)">CI excludes zero</text>
   </g>
   <g id="text_27">
    <text style="font-size: 12px; font-family: 'DejaVu Sans'; text-anchor: start; fill: #1a1a2e" x="608.419265" y="80.952" transform="rotate(-0 608.419265 80.952)">Confirmed efficiency effect</text>
   </g>
   <g id="PathCollection_7">
    <defs>
     <path id="m1effd7cdf3" d="M 0 4.743416 
C 1.257969 4.743416 2.464584 4.24362 3.354102 3.354102 
C 4.24362 2.464584 4.743416 1.257969 4.743416 0 
C 4.743416 -1.257969 4.24362 -2.464584 3.354102 -3.354102 
C 2.464584 -4.24362 1.257969 -4.743416 0 -4.743416 
C -1.257969 -4.743416 -2.464584 -4.24362 -3.354102 -3.354102 
C -4.24362 -2.464584 -4.743416 -1.257969 -4.743416 0 
C -4.743416 1.257969 -4.24362 2.464584 -3.354102 3.354102 
C -2.464584 4.24362 -1.257969 4.743416 0 4.743416 
z
" style="stroke: #f7f8fa; stroke-width: 1.2"/>
    </defs>
    <g clip-path="url(#p8fe6659c76)">
     <use xlink:href="#m1effd7cdf3" x="706.843637" y="218.232" style="fill: #2a9d8f; stroke: #f7f8fa; stroke-width: 1.2"/>
    </g>
   </g>
  </g>
  <g id="text_28">
   <text style="font-size: 18px; font-family: 'DejaVu Sans'; text-anchor: start; fill: #1a1a2e" x="31.16325" y="25.197187" transform="rotate(-0 31.16325 25.197187)">Predicted vs Observed Harness Effects</text>
  </g>
  <g id="text_29">
   <text style="font-size: 9.5px; font-family: 'DejaVu Sans'; text-anchor: start; fill: #8d99ae" x="31.16325" y="38.365716" transform="rotate(-0 31.16325 38.365716)">Pass-rate calibration stays separate from the confirmed steps/run effect</text>
  </g>
  <g id="text_30">
   <text style="font-size: 7.5px; font-family: 'DejaVu Sans'; text-anchor: start; fill: #8d99ae" x="31.16325" y="398.086242" transform="rotate(-0 31.16325 398.086242)">Source: docs/data/calibration.json; steps CI from pooled eval/compare.py</text>
  </g>
 </g>
 <defs>
  <clipPath id="p8ad3d25d50">
   <rect x="92.65125" y="92.952" width="415.569573" height="250.56"/>
  </clipPath>
  <clipPath id="p8fe6659c76">
   <rect x="608.419265" y="92.952" width="230.871985" height="250.56"/>
  </clipPath>
 </defs>
</svg>
