<?xml version="1.0" encoding="utf-8" standalone="no"?>
<!DOCTYPE svg PUBLIC "-//W3C//DTD SVG 1.1//EN"
  "http://www.w3.org/Graphics/SVG/1.1/DTD/svg11.dtd">
<svg xmlns:xlink="http://www.w3.org/1999/xlink" width="791.928pt" height="377.928pt" viewBox="0 0 791.928 377.928" xmlns="http://www.w3.org/2000/svg" version="1.1">
 <metadata>
  <rdf:RDF xmlns:dc="http://purl.org/dc/elements/1.1/" xmlns:cc="http://creativecommons.org/ns#" xmlns:rdf="http://www.w3.org/1999/02/22-rdf-syntax-ns#">
   <cc:Work>
    <dc:type rdf:resource="http://purl.org/dc/dcmitype/StillImage"/>
    <dc:format>image/svg+xml</dc:format>
    <dc:creator>
     <cc:Agent>
      <dc:title>HarnessForge figure generator</dc:title>
     </cc:Agent>
    </dc:creator>
   </cc:Work>
  </rdf:RDF>
 </metadata>
 <defs>
  <style type="text/css">*{stroke-linejoin: round; stroke-linecap: butt}</style>
 </defs>
 <g id="figure_1">
  <g id="patch_1">
   <path d="M 0 377.928 
L 791.928 377.928 
L 791.928 0 
L 0 0 
z
" style="fill: #f7f8fa"/>
  </g>
  <g id="axes_1">
   <g id="patch_2">
    <path d="M 202.68 314.892 
L 780.408 314.892 
L 780.408 66.852 
L 202.68 66.852 
z
" style="fill: #f7f8fa"/>
   </g>
   <g id="patch_3">
    <path d="M 211.694196 75.391082 
L 283.807762 75.391082 
L 283.807762 103.041443 
L 211.694196 103.041443 
z
" clip-path="url(#p23885a185d)" style="fill: #ffffff; stroke: #e4e7ed; stroke-width: 0.8; stroke-linejoin: miter"/>
   </g>
   <g id="patch_4">
    <path d="M 293.64143 75.391082 
L 365.754996 75.391082 
L 365.754996 103.041443 
L 293.64143 103.041443 
z
" clip-path="url(#p23885a185d)" style="fill: #ffffff; stroke: #e4e7ed; stroke-width: 0.8; stroke-linejoin: miter"/>
   </g>
   <g id="patch_5">
    <path d="M 375.588664 75.391082 
L 447.70223 75.391082 
L 447.70223 103.041443 
L 375.588664 103.041443 
z
" clip-path="url(#p23885a185d)" style="fill: #ffffff; stroke: #e4e7ed; stroke-width: 0.8; stroke-linejoin: miter"/>
   </g>
   <g id="patch_6">
    <path d="M 457.535898 75.391082 
L 529.649464 75.391082 
L 529.649464 103.041443 
L 457.535898 103.041443 
z
" clip-path="url(#p23885a185d)" style="fill: #ffffff; stroke: #e4e7ed; stroke-width: 0.8; stroke-linejoin: miter"/>
   </g>
   <g id="patch_7">
    <path d="M 211.694196 116.053377 
L 283.807762 116.053377 
L 283.807762 143.703738 
L 211.694196 143.703738 
z
" clip-path="url(#p23885a185d)" style="fill: #ffffff; stroke: #e4e7ed; stroke-width: 0.8; stroke-linejoin: miter"/>
   </g>
   <g id="patch_8">
    <path d="M 293.64143 116.053377 
L 365.754996 116.053377 
L 365.754996 143.703738 
L 293.64143 143.703738 
z
" clip-path="url(#p23885a185d)" style="fill: #ffffff; stroke: #e4e7ed; stroke-width: 0.8; stroke-linejoin: miter"/>
   </g>
   <g id="patch_9">
    <path d="M 375.588664 116.053377 
L 447.70223 116.053377 
L 447.70223 143.703738 
L 375.588664 143.703738 
z
" clip-path="url(#p23885a185d)" style="fill: #ffffff; stroke: #e4e7ed; stroke-width: 0.8; stroke-linejoin: miter"/>
   </g>
   <g id="patch_10">
    <path d="M 457.535898 116.053377 
L 529.649464 116.053377 
L 529.649464 143.703738 
L 457.535898 143.703738 
z
" clip-path="url(#p23885a185d)" style="fill: #ffffff; stroke: #e4e7ed; stroke-width: 0.8; stroke-linejoin: miter"/>
   </g>
   <g id="patch_11">
    <path d="M 211.694196 156.715672 
L 283.807762 156.715672 
L 283.807762 184.366033 
L 211.694196 184.366033 
z
" clip-path="url(#p23885a185d)" style="fill: #ffffff; stroke: #e4e7ed; stroke-width: 0.8; stroke-linejoin: miter"/>
   </g>
   <g id="patch_12">
    <path d="M 293.64143 156.715672 
L 365.754996 156.715672 
L 365.754996 184.366033 
L 293.64143 184.366033 
z
" clip-path="url(#p23885a185d)" style="fill: #ffffff; stroke: #e4e7ed; stroke-width: 0.8; stroke-linejoin: miter"/>
   </g>
   <g id="patch_13">
    <path d="M 375.588664 156.715672 
L 447.70223 156.715672 
L 447.70223 184.366033 
L 375.588664 184.366033 
z
" clip-path="url(#p23885a185d)" style="fill: #ffffff; stroke: #e4e7ed; stroke-width: 0.8; stroke-linejoin: miter"/>
   </g>
   <g id="patch_14">
    <path d="M 457.535898 156.715672 
L 529.649464 156.715672 
L 529.649464 184.366033 
L 457.535898 184.366033 
z
" clip-path="url(#p23885a185d)" style="fill: #ffffff; stroke: #e4e7ed; stroke-width: 0.8; stroke-linejoin: miter"/>
   </g>
   <g id="patch_15">
    <path d="M 211.694196 197.377967 
L 283.807762 197.377967 
L 283.807762 225.028328 
L 211.694196 225.028328 
z
" clip-path="url(#p23885a185d)" style="fill: #ffffff; stroke: #e4e7ed; stroke-width: 0.8; stroke-linejoin: miter"/>
   </g>
   <g id="patch_16">
    <path d="M 293.64143 197.377967 
L 365.754996 197.377967 
L 365.754996 225.028328 
L 293.64143 225.028328 
z
" clip-path="url(#p23885a185d)" style="fill: #ffffff; stroke: #e4e7ed; stroke-width: 0.8; stroke-linejoin: miter"/>
   </g>
   <g id="patch_17">
    <path d="M 375.588664 197.377967 
L 447.70223 197.377967 
L 447.70223 225.028328 
L 375.588664 225.028328 
z
" clip-path="url(#p23885a185d)" style="fill: #ffffff; stroke: #e4e7ed; stroke-width: 0.8; stroke-linejoin: miter"/>
   </g>
   <g id="patch_18">
    <path d="M 457.535898 197.377967 
L 529.649464 197.377967 
L 529.649464 225.028328 
L 457.535898 225.028328 
z
" clip-path="url(#p23885a185d)" style="fill: #ffffff; stroke: #e4e7ed; stroke-width: 0.8; stroke-linejoin: miter"/>
   </g>
   <g id="patch_19">
    <path d="M 211.694196 238.040262 
L 283.807762 238.040262 
L 283.807762 265.690623 
L 211.694196 265.690623 
z
" clip-path="url(#p23885a185d)" style="fill: #ffffff; stroke: #e4e7ed; stroke-width: 0.8; stroke-linejoin: miter"/>
   </g>
   <g id="patch_20">
    <path d="M 293.64143 238.040262 
L 365.754996 238.040262 
L 365.754996 265.690623 
L 293.64143 265.690623 
z
" clip-path="url(#p23885a185d)" style="fill: #ffffff; stroke: #e4e7ed; stroke-width: 0.8; stroke-linejoin: miter"/>
   </g>
   <g id="patch_21">
    <path d="M 375.588664 238.040262 
L 447.70223 238.040262 
L 447.70223 265.690623 
L 375.588664 265.690623 
z
" clip-path="url(#p23885a185d)" style="fill: #ffffff; stroke: #e4e7ed; stroke-width: 0.8; stroke-linejoin: miter"/>
   </g>
   <g id="patch_22">
    <path d="M 457.535898 238.040262 
L 529.649464 238.040262 
L 529.649464 265.690623 
L 457.535898 265.690623 
z
" clip-path="url(#p23885a185d)" style="fill: #ffffff; stroke: #e4e7ed; stroke-width: 0.8; stroke-linejoin: miter"/>
   </g>
   <g id="patch_23">
    <path d="M 211.694196 278.702557 
L 283.807762 278.702557 
L 283.807762 306.352918 
L 211.694196 306.352918 
z
" clip-path="url(#p23885a185d)" style="fill: #ffffff; stroke: #e4e7ed; stroke-width: 0.8; stroke-linejoin: miter"/>
   </g>
   <g id="patch_24">
    <path d="M 293.64143 278.702557 
L 365.754996 278.702557 
L 365.754996 306.352918 
L 293.64143 306.352918 
z
" clip-path="url(#p23885a185d)" style="fill: #ffffff; stroke: #e4e7ed; stroke-width: 0.8; stroke-linejoin: miter"/>
   </g>
   <g id="patch_25">
    <path d="M 375.588664 278.702557 
L 447.70223 278.702557 
L 447.70223 306.352918 
L 375.588664 306.352918 
z
" clip-path="url(#p23885a185d)" style="fill: #ffffff; stroke: #e4e7ed; stroke-width: 0.8; stroke-linejoin: miter"/>
   </g>
   <g id="patch_26">
    <path d="M 457.535898 278.702557 
L 529.649464 278.702557 
L 529.649464 306.352918 
L 457.535898 306.352918 
z
" clip-path="url(#p23885a185d)" style="fill: #ffffff; stroke: #e4e7ed; stroke-width: 0.8; stroke-linejoin: miter"/>
   </g>
   <g id="patch_27">
    <path d="M 457.535898 75.391082 
L 529.649464 75.391082 
L 529.649464 103.041443 
L 457.535898 103.041443 
z
" clip-path="url(#p23885a185d)" style="fill: #2a9d8f; opacity: 0.18; stroke: #2a9d8f; stroke-linejoin: miter"/>
   </g>
   <g id="patch_28">
    <path d="M 457.535898 116.053377 
L 529.649464 116.053377 
L 529.649464 143.703738 
L 457.535898 143.703738 
z
" clip-path="url(#p23885a185d)" style="fill: #2a9d8f; opacity: 0.18; stroke: #2a9d8f; stroke-linejoin: miter"/>
   </g>
   <g id="patch_29">
    <path d="M 375.588664 156.715672 
L 447.70223 156.715672 
L 447.70223 184.366033 
L 375.588664 184.366033 
z
" clip-path="url(#p23885a185d)" style="fill: #2a9d8f; opacity: 0.18; stroke: #2a9d8f; stroke-linejoin: miter"/>
   </g>
   <g id="patch_30">
    <path d="M 293.64143 197.377967 
L 365.754996 197.377967 
L 365.754996 225.028328 
L 293.64143 225.028328 
z
" clip-path="url(#p23885a185d)" style="fill: #e9c46a; opacity: 0.25; stroke: #e9c46a; stroke-linejoin: miter"/>
   </g>
   <g id="patch_31">
    <path d="M 293.64143 238.040262 
L 365.754996 238.040262 
L 365.754996 265.690623 
L 293.64143 265.690623 
z
" clip-path="url(#p23885a185d)" style="fill: #e9c46a; opacity: 0.25; stroke: #e9c46a; stroke-linejoin: miter"/>
   </g>
   <g id="patch_32">
    <path d="M 375.588664 278.702557 
L 447.70223 278.702557 
L 447.70223 306.352918 
L 375.588664 306.352918 
z
" clip-path="url(#p23885a185d)" style="fill: #2a9d8f; opacity: 0.18; stroke: #2a9d8f; stroke-linejoin: miter"/>
   </g>
   <g id="matplotlib.axis_1">
    <g id="xtick_1">
     <g id="line2d_1"/>
     <g id="text_1">
      <text style="font-size: 9px; font-family: 'DejaVu Sans'; text-anchor: middle; fill: #1a1a2e" x="247.750979" y="52.689891" transform="rotate(-0 247.750979 52.689891)">Basic</text>
     </g>
    </g>
    <g id="xtick_2">
     <g id="line2d_2"/>
     <g id="text_2">
      <text style="font-size: 9px; font-family: 'DejaVu Sans'; text-anchor: middle; fill: #1a1a2e" x="329.698213" y="52.689891" transform="rotate(-0 329.698213 52.689891)">Basic+</text>
     </g>
    </g>
    <g id="xtick_3">
     <g id="line2d_3"/>
     <g id="text_3">
      <text style="font-size: 9px; font-family: 'DejaVu Sans'; text-anchor: middle; fill: #1a1a2e" x="411.645447" y="52.689891" transform="rotate(-0 411.645447 52.689891)">Solid</text>
     </g>
    </g>
    <g id="xtick_4">
     <g id="line2d_4"/>
     <g id="text_4">
      <text style="font-size: 9px; font-family: 'DejaVu Sans'; text-anchor: middle; fill: #1a1a2e" x="493.592681" y="52.689891" transform="rotate(-0 493.592681 52.689891)">Near-production</text>
     </g>
    </g>
   </g>
   <g id="matplotlib.axis_2">
    <g id="ytick_1">
     <g id="line2d_5"/>
     <g id="text_5">
      <text style="font-size: 9.1px; font-family: 'DejaVu Sans'; text-anchor: end; fill: #1a1a2e" x="190.68" y="92.673551" transform="rotate(-0 190.68 92.673551)">Evaluation &amp; observability</text>
     </g>
    </g>
    <g id="ytick_2">
     <g id="line2d_6"/>
     <g id="text_6">
      <text style="font-size: 9.1px; font-family: 'DejaVu Sans'; text-anchor: end; fill: #1a1a2e" x="190.68" y="133.335846" transform="rotate(-0 190.68 133.335846)">Constraints &amp; recovery</text>
     </g>
    </g>
    <g id="ytick_3">
     <g id="line2d_7"/>
     <g id="text_7">
      <text style="font-size: 9.1px; font-family: 'DejaVu Sans'; text-anchor: end; fill: #1a1a2e" x="190.68" y="173.998142" transform="rotate(-0 190.68 173.998142)">Tool system</text>
     </g>
    </g>
    <g id="ytick_4">
     <g id="line2d_8"/>
     <g id="text_8">
      <text style="font-size: 9.1px; font-family: 'DejaVu Sans'; text-anchor: end; fill: #1a1a2e" x="190.68" y="214.660437" transform="rotate(-0 190.68 214.660437)">Orchestration</text>
     </g>
    </g>
    <g id="ytick_5">
     <g id="line2d_9"/>
     <g id="text_9">
      <text style="font-size: 9.1px; font-family: 'DejaVu Sans'; text-anchor: end; fill: #1a1a2e" x="190.68" y="255.322376" transform="rotate(-0 190.68 255.322376)">Context management</text>
     </g>
    </g>
    <g id="ytick_6">
     <g id="line2d_10"/>
     <g id="text_10">
      <text style="font-size: 9.1px; font-family: 'DejaVu Sans'; text-anchor: end; fill: #1a1a2e" x="190.68" y="295.984671" transform="rotate(-0 190.68 295.984671)">State &amp; memory</text>
     </g>
    </g>
   </g>
   <g id="PathCollection_1">
    <defs>
     <path id="m21922cca69" d="M -0 5.385165 
L 5.385165 0 
L 0 -5.385165 
L -5.385165 -0 
z
" style="stroke: #ffffff; stroke-width: 0.9"/>
    </defs>
    <g clip-path="url(#p23885a185d)">
     <use xlink:href="#m21922cca69" x="493.592681" y="89.216262" style="fill: #2a9d8f; stroke: #ffffff; stroke-width: 0.9"/>
    </g>
   </g>
   <g id="text_11">
    <text style="font-size: 8.2px; font-family: 'DejaVu Sans'; text-anchor: start; fill: #8d99ae" x="612.41617" y="91.346661" transform="rotate(-0 612.41617 91.346661)">JSONL · replay · bootstrap/Wilson CIs</text>
   </g>
   <g id="PathCollection_2">
    <g clip-path="url(#p23885a185d)">
     <use xlink:href="#m21922cca69" x="493.592681" y="129.878557" style="fill: #2a9d8f; stroke: #ffffff; stroke-width: 0.9"/>
    </g>
   </g>
   <g id="text_12">
    <text style="font-size: 8.2px; font-family: 'DejaVu Sans'; text-anchor: start; fill: #8d99ae" x="612.41617" y="132.008956" transform="rotate(-0 612.41617 132.008956)">budgets · retry · arg validation</text>
   </g>
   <g id="PathCollection_3">
    <defs>
     <path id="mfa4c226c98" d="M 0 3.807887 
C 1.009863 3.807887 1.978501 3.406664 2.692582 2.692582 
C 3.406664 1.978501 3.807887 1.009863 3.807887 0 
C 3.807887 -1.009863 3.406664 -1.978501 2.692582 -2.692582 
C 1.978501 -3.406664 1.009863 -3.807887 0 -3.807887 
C -1.009863 -3.807887 -1.978501 -3.406664 -2.692582 -2.692582 
C -3.406664 -1.978501 -3.807887 -1.009863 -3.807887 0 
C -3.807887 1.009863 -3.406664 1.978501 -2.692582 2.692582 
C -1.978501 3.406664 -1.009863 3.807887 0 3.807887 
z
" style="stroke: #ffffff; stroke-width: 0.9"/>
    </defs>
    <g clip-path="url(#p23885a185d)">
     <use xlink:href="#mfa4c226c98" x="411.645447" y="170.540852" style="fill: #2a9d8f; stroke: #ffffff; stroke-width: 0.9"/>
    </g>
   </g>
   <g id="text_13">
    <text style="font-size: 8.2px; font-family: 'DejaVu Sans'; text-anchor: start; fill: #8d99ae" x="612.41617" y="172.671251" transform="rotate(-0 612.41617 172.671251)">simple scope · 6 tools</text>
   </g>
   <g id="PathCollection_4">
    <defs>
     <path id="m0e641a0de9" d="M -3.807887 3.807887 
L 3.807887 3.807887 
L 3.807887 -3.807887 
L -3.807887 -3.807887 
z
" style="stroke: #ffffff; stroke-width: 0.9"/>
    </defs>
    <g clip-path="url(#p23885a185d)">
     <use xlink:href="#m0e641a0de9" x="329.698213" y="211.203148" style="fill: #e9c46a; stroke: #ffffff; stroke-width: 0.9"/>
    </g>
   </g>
   <g id="text_14">
    <text style="font-size: 8.2px; font-family: 'DejaVu Sans'; text-anchor: start; fill: #8d99ae" x="612.41617" y="213.333546" transform="rotate(-0 612.41617 213.333546)">single loop · crash-safe resume</text>
   </g>
   <g id="PathCollection_5">
    <g clip-path="url(#p23885a185d)">
     <use xlink:href="#m0e641a0de9" x="329.698213" y="251.865443" style="fill: #e9c46a; stroke: #ffffff; stroke-width: 0.9"/>
    </g>
   </g>
   <g id="text_15">
    <text style="font-size: 8.2px; font-family: 'DejaVu Sans'; text-anchor: start; fill: #8d99ae" x="612.41617" y="253.995841" transform="rotate(-0 612.41617 253.995841)">deterministic compaction</text>
   </g>
   <g id="PathCollection_6">
    <g clip-path="url(#p23885a185d)">
     <use xlink:href="#mfa4c226c98" x="411.645447" y="292.527738" style="fill: #2a9d8f; stroke: #ffffff; stroke-width: 0.9"/>
    </g>
   </g>
   <g id="text_16">
    <text style="font-size: 8.2px; font-family: 'DejaVu Sans'; text-anchor: start; fill: #8d99ae" x="612.41617" y="294.658136" transform="rotate(-0 612.41617 294.658136)">episode-scoped · replayable</text>
   </g>
   <g id="text_17">
    <text style="font-size: 7.5px; font-family: 'DejaVu Sans'; text-anchor: start; fill: #8d99ae" x="612.41617" y="61.887652" transform="rotate(-0 612.41617 61.887652)">SCOPE / EVIDENCE</text>
   </g>
   <g id="legend_1">
    <g id="line2d_11">
     <defs>
      <path id="ma843a6108c" d="M -3 3 
L 3 3 
L 3 -3 
L -3 -3 
z
" style="stroke: #ffffff; stroke-linejoin: miter"/>
     </defs>
     <g>
      <use xlink:href="#ma843a6108c" x="217.88" y="350.097725" style="fill: #e9c46a; stroke: #ffffff; stroke-linejoin: miter"/>
     </g>
    </g>
    <g id="text_18">
     <text style="font-size: 8px; font-family: 'DejaVu Sans'; text-anchor: start; fill: #1a1a2e" x="229.88" y="352.897725" transform="rotate(-0 229.88 352.897725)">Basic+</text>
    </g>
    <g id="line2d_12">
     <defs>
      <path id="mbf63e4ab29" d="M 0 3 
C 0.795609 3 1.55874 2.683901 2.12132 2.12132 
C 2.683901 1.55874 3 0.795609 3 0 
C 3 -0.795609 2.683901 -1.55874 2.12132 -2.12132 
C 1.55874 -2.683901 0.795609 -3 0 -3 
C -0.795609 -3 -1.55874 -2.683901 -2.12132 -2.12132 
C -2.683901 -1.55874 -3 -0.795609 -3 0 
C -3 0.795609 -2.683901 1.55874 -2.12132 2.12132 
C -1.55874 2.683901 -0.795609 3 0 3 
z
" style="stroke: #ffffff"/>
     </defs>
     <g>
      <use xlink:href="#mbf63e4ab29" x="279.36375" y="350.097725" style="fill: #2a9d8f; stroke: #ffffff"/>
     </g>
    </g>
    <g id="text_19">
     <text style="font-size: 8px; font-family: 'DejaVu Sans'; text-anchor: start; fill: #1a1a2e" x="291.36375" y="352.897725" transform="rotate(-0 291.36375 352.897725)">Solid</text>
    </g>
    <g id="line2d_13">
     <defs>
      <path id="m96f0d017c0" d="M -0 4.242641 
L 4.242641 0 
L 0 -4.242641 
L -4.242641 -0 
z
" style="stroke: #ffffff; stroke-linejoin: miter"/>
     </defs>
     <g>
      <use xlink:href="#m96f0d017c0" x="332.46125" y="350.097725" style="fill: #2a9d8f; stroke: #ffffff; stroke-linejoin: miter"/>
     </g>
    </g>
    <g id="text_20">
     <text style="font-size: 8px; font-family: 'DejaVu Sans'; text-anchor: start; fill: #1a1a2e" x="344.46125" y="352.897725" transform="rotate(-0 344.46125 352.897725)">Near-production</text>
    </g>
   </g>
  </g>
  <g id="text_21">
   <text style="font-size: 18px; font-family: 'DejaVu Sans'; text-anchor: start; fill: #1a1a2e" x="11.52" y="25.197187" transform="rotate(-0 11.52 25.197187)">Harness Reliability Surface</text>
  </g>
  <g id="text_22">
   <text style="font-size: 9.5px; font-family: 'DejaVu Sans'; text-anchor: start; fill: #8d99ae" x="11.52" y="36.673716" transform="rotate(-0 11.52 36.673716)">Categorical engineering self-assessment · no numeric score or radar area is implied.</text>
  </g>
  <g id="text_23">
   <text style="font-size: 7.5px; font-family: 'DejaVu Sans'; text-anchor: start; fill: #8d99ae" x="11.52" y="364.606242" transform="rotate(-0 11.52 364.606242)">Source: EXPERIMENTS.md · Qualitative self-assessment; qualifiers describe scope and evidence, not additional maturity levels.</text>
  </g>
 </g>
 <defs>
  <clipPath id="p23885a185d">
   <rect x="202.68" y="66.852" width="577.728" height="248.04"/>
  </clipPath>
 </defs>
</svg>
